<?xml version="1.0" encoding="utf-8"?>
<!-- Generator: Adobe Illustrator 22.0.1, SVG Export Plug-In . SVG Version: 6.00 Build 0)  -->
<svg version="1.1" id="Слой_1" xmlns="http://www.w3.org/2000/svg" xmlns:xlink="http://www.w3.org/1999/xlink" x="0px" y="0px"
	 viewBox="0 0 90.9 60.9" style="enable-background:new 0 0 90.9 60.9;" xml:space="preserve">
<style type="text/css">
	.st0{fill:#A4A4A4;}
	.st1{fill:#FFFFFF;}
</style>
<polygon points="18.8,44.8 20.6,58.9 19.2,58.9 15.2,42.4 19.3,37.1 23.6,38 "/>
<polygon points="47.5,58.8 46.1,58.8 48.4,40.5 51.1,40.5 51.5,41.3 "/>
<path class="st0" d="M90,19.2L82.6,8.1c-0.8-1.2-2-1.4-2.8-1.4l-0.4-1c-0.1-0.3-0.1-0.5,0-0.8c0.1-0.3,0.3-0.5,0.6-0.6l7.2-2.8
	C88,1.2,87.8,0,86.9,0h-9c-1.3,0-2.7,0.5-3.6,1.4c-1.4,1.4-1.9,3.3-1.3,5.1l-0.2-0.1c-0.9-0.6-1.9-0.9-3-0.9h-5.4l3.4,3.3l-5.6,1
	H6.5C2.9,9.8,0,12.7,0,16.3v24.2h5.7V17.3c0-0.5,0.5-1.3,1.4-1.3v7.2l1.4,9.4l-1.4,8.1l1.4,20.2H14V46.3l3.6,14.6H23l-2-15.6
	l4.9-6.9l5.6,1.2c2.5,0.6,5.1,0.8,7.7,0.8h7.1l-2.6,20.4h5.4L53,44.3l1.1,2.2l1.5,14.4H61V40.2c3-0.7,5.5-2.5,7.1-5.1l6.6-10.8
	l4.8,1.2h4.4l1.4,0.4c1.7,0.6,3.6,0,4.7-1.4C91.2,22.9,91.2,20.8,90,19.2z"/>
<path class="st1" d="M53.6,31.5c-0.4,1.4-1.7,2.3-3.1,2.3H49c-0.4,0-0.8,0.1-1.1,0.3l-2.6,1.8c-1.1,0.8-2.6,0.5-3.5-0.5
	c-0.8-0.9-0.8-2.3,0-3.3l0.7-1c0.5-0.6,0.6-1.5,0.2-2.2l-0.4-0.7c-0.6-1-0.2-2.3,0.9-2.8l1.4-0.7c1-0.5,2.2-0.1,2.7,0.8
	c0.3,0.5,0.7,0.9,1.3,1l2.9,0.7C53,27.9,54.1,29.7,53.6,31.5z"/>
<path class="st1" d="M15.9,11.9l24.4-0.1c0,0,1.6,2.1-0.8,3.5c0,0-2.9,0.1-2.9,1.8c0,1.7,0.7,6-2.3,6.2c-3,0.2-10.3,0.4-11.2-0.1
	c-0.9-0.5-1.9-1-2.1-2.8s-0.9-2.1-3.5-2.1s-2.3-3.2-2.2-4.3S15.9,11.9,15.9,11.9z"/>
<path class="st1" d="M48.5,11.8h14.1c0,0,4.6-0.9,5.9-1.1c0,0,1.7,3.1-0.4,4.3s-3.4,2.1-3.3,4.1S64,22.2,62,22.5
	c-2,0.3-3.4-0.5-3.9-2s0-2.1-1.7-2.1s-5.7,0.4-6.7-1.1s-1.2-2.6-1.2-4S48.5,11.8,48.5,11.8z"/>
</svg>
