<?xml version="1.0" encoding="utf-8"?>
<!-- Generator: Adobe Illustrator 22.0.1, SVG Export Plug-In . SVG Version: 6.00 Build 0)  -->
<svg version="1.1" id="Capa_1" xmlns="http://www.w3.org/2000/svg" xmlns:xlink="http://www.w3.org/1999/xlink" x="0px" y="0px"
	 viewBox="0 0 624 624" style="enable-background:new 0 0 624 624;" xml:space="preserve">
<style type="text/css">
	.st0{fill:#FFFFFF;}
</style>
<g>
	<path class="st0" d="M532.6,91.4C473.7,32.5,395.3,0,312,0S150.3,32.5,91.4,91.4S0,228.7,0,312s32.5,161.7,91.4,220.6
		C150.3,591.5,228.7,624,312,624s161.7-32.5,220.6-91.4C591.5,473.7,624,395.3,624,312S591.5,150.3,532.6,91.4z M312,584.2
		c-72.7,0-141-28.3-192.5-79.7S39.8,384.7,39.8,312s28.3-141,79.7-192.5S239.3,39.8,312,39.8s141,28.3,192.5,79.7
		s79.7,119.8,79.7,192.5s-28.3,141-79.7,192.5S384.7,584.2,312,584.2z"/>
	<ellipse class="st0" cx="312" cy="312" rx="45.9" ry="45.9"/>
	<path class="st0" d="M372.9,176H251.1c-41.4,0-75,33.7-75,75v121.8c0,41.4,33.7,75,75,75h121.8c41.4,0,75-33.7,75-75V251.1
		C448,209.7,414.3,176,372.9,176z M312,382c-38.6,0-70-31.4-70-70s31.4-70,70-70s70,31.4,70,70S350.6,382,312,382z M397.5,251.7
		c-3.3,3.3-7.9,5.2-12.5,5.2c-4.7,0-9.2-1.9-12.5-5.2s-5.2-7.9-5.2-12.5c0-4.7,1.9-9.2,5.2-12.5c3.3-3.3,7.9-5.2,12.5-5.2
		c4.7,0,9.2,1.9,12.5,5.2s5.2,7.9,5.2,12.5S400.8,248.4,397.5,251.7z"/>
</g>
</svg>
