<?xml version="1.0" encoding="utf-8"?>
<!-- Generator: Adobe Illustrator 22.0.1, SVG Export Plug-In . SVG Version: 6.00 Build 0)  -->
<svg version="1.1" id="Слой_1" xmlns="http://www.w3.org/2000/svg" xmlns:xlink="http://www.w3.org/1999/xlink" x="0px" y="0px"
	 viewBox="0 0 7.7 12.8" style="enable-background:new 0 0 7.7 12.8;" xml:space="preserve">
<style type="text/css">
	.st0{fill:#505050;}
	.st1{fill:#C4C4C4;}
</style>
<g>
	<path class="st0" d="M3.9,0.1c-2.1,0-3.7,1.7-3.7,3.7c0,2.1,3.7,8.7,3.7,8.7s3.7-6.6,3.7-8.7C7.6,1.8,5.9,0.1,3.9,0.1z M3.8,5.5
		c-0.9,0-1.6-0.7-1.6-1.6s0.7-1.6,1.6-1.6S5.5,3,5.5,3.9S4.7,5.5,3.8,5.5z"/>
	<path class="st1" d="M3.9,12.8l-0.1-0.2C3.6,12.3,0,6,0,3.9C0,1.7,1.7,0,3.9,0C6,0,7.7,1.7,7.7,3.9c0,2.1-3.6,8.4-3.8,8.7L3.9,12.8
		z M3.9,0.2c-2,0-3.6,1.6-3.6,3.6c0,1.8,3,7.3,3.6,8.4c0.6-1.1,3.6-6.6,3.6-8.4C7.5,1.9,5.9,0.2,3.9,0.2z M3.8,5.6
		c-1,0-1.7-0.8-1.7-1.7s0.8-1.7,1.7-1.7s1.7,0.8,1.7,1.7S4.8,5.6,3.8,5.6z M3.8,2.4C3,2.4,2.3,3,2.3,3.9S3,5.4,3.8,5.4
		c0.8,0,1.5-0.7,1.5-1.5S4.7,2.4,3.8,2.4z"/>
</g>
</svg>
