<?xml version="1.0" encoding="utf-8"?>
<!-- Generator: Adobe Illustrator 22.0.1, SVG Export Plug-In . SVG Version: 6.00 Build 0)  -->
<svg version="1.1" id="Capa_1" xmlns="http://www.w3.org/2000/svg" xmlns:xlink="http://www.w3.org/1999/xlink" x="0px" y="0px"
	 viewBox="0 0 612 524.9" style="enable-background:new 0 0 612 524.9;" xml:space="preserve">
<style type="text/css">
	.st0{fill:#BAE6BA;}
</style>
<polygon class="st0" points="182.5,106.5 240.5,307.5 539.5,300.5 580.5,106.5 "/>
<ellipse class="st0" cx="505.2" cy="470.7" rx="33.2" ry="35.8"/>
<circle class="st0" cx="248.4" cy="469.9" r="31.4"/>
<g>
	<g>
		<g>
			<path class="st0" d="M225.7,329.2h308.2c17.5,0,27-18.8,31.9-35.8L612,77H147.6l46.2,216.5C197.5,310.6,208.2,329.2,225.7,329.2z
				 M485.2,274l31.9-150.1c1.8-8.6,10.3-14.1,18.9-12.3c8.6,1.8,14.1,10.3,12.3,18.9l-31.9,150.1c-1.6,7.5-8.2,12.6-15.6,12.6
				c-1.1,0-2.2-0.1-3.3-0.4C488.9,291.1,483.4,282.6,485.2,274z M405.2,276.2l10.6-150.1c0.6-8.8,8.2-15.4,17-14.8
				c8.8,0.6,15.4,8.2,14.8,17L437,278.4c-0.6,8.4-7.6,14.8-15.9,14.8c-0.4,0-0.8,0-1.1,0C411.2,292.6,404.6,284.9,405.2,276.2z
				 M324.3,111.3c8.7-0.6,16.4,6,17,14.8L352,276.2c0.6,8.8-6,16.4-14.8,17c-0.4,0-0.8,0-1.1,0c-8.3,0-15.3-6.4-15.9-14.8
				l-10.6-150.1C308.9,119.5,315.6,111.9,324.3,111.3z M221.2,111.6c8.6-1.8,17.1,3.7,18.9,12.3L272,274c1.8,8.6-3.7,17.1-12.3,18.9
				c-1.1,0.2-2.2,0.4-3.3,0.4c-7.4,0-14-5.1-15.6-12.6l-31.9-150.2C207.1,121.9,212.6,113.4,221.2,111.6z"/>
			<path class="st0" d="M245.9,416.1c-30.1,0-54.4,24.4-54.4,54.4s24.4,54.4,54.4,54.4s54.4-24.4,54.4-54.4S276,416.1,245.9,416.1z
				 M245.9,491c-11.3,0-20.4-9.1-20.4-20.4c0-11.3,9.1-20.4,20.4-20.4s20.4,9.1,20.4,20.4C266.3,481.8,257.2,491,245.9,491z"/>
			<path class="st0" d="M504.5,416.1c-30.1,0-54.5,24.4-54.5,54.4s24.4,54.4,54.5,54.4c30.1,0,54.4-24.4,54.4-54.4
				C559,440.5,534.6,416.1,504.5,416.1z M504.5,491c-11.3,0-20.4-9.1-20.4-20.4c0-11.3,9.1-20.4,20.4-20.4s20.4,9.1,20.4,20.4
				C524.9,481.8,515.8,491,504.5,491z"/>
		</g>
		<path class="st0" d="M587,393.9H174.9c-14.8,0-27.5-10.1-30.9-24.5L66.9,36.9H18.5C8.3,36.9,0,28.7,0,18.5S8.3,0,18.5,0h52.6
			C85.9,0,98.6,10.1,102,24.5L179,357h408c10.2,0,18.5,8.3,18.5,18.5C605.4,385.6,597.2,393.9,587,393.9z"/>
	</g>
</g>
</svg>
