<?xml version="1.0" encoding="utf-8"?>
<!-- Generator: Adobe Illustrator 22.0.1, SVG Export Plug-In . SVG Version: 6.00 Build 0)  -->
<svg version="1.1" id="Layer_1" xmlns="http://www.w3.org/2000/svg" xmlns:xlink="http://www.w3.org/1999/xlink" x="0px" y="0px"
	 viewBox="0 0 379.6 512" style="enable-background:new 0 0 379.6 512;" xml:space="preserve">
<style type="text/css">
	.st0{fill:#A4A4A4;}
</style>
<path class="st0" d="M2.7,135.1c-8.3,36.4,2.7,77.6,32.7,107.7s71.3,41.1,107.7,32.7c8.3-36.4-2.7-77.6-32.7-107.7
	S39.1,126.8,2.7,135.1z"/>
<path class="st0" d="M2.7,135.1l140.4,140.4l0,0c8.3-36.4-2.7-77.6-32.8-107.7S39.1,126.8,2.7,135.1L2.7,135.1z"/>
<path class="st0" d="M46.3,2.2c-6.7,29.3,2.2,62.5,26.4,86.7s57.4,33.1,86.7,26.4c6.7-29.3-2.2-62.5-26.4-86.7S75.6-4.5,46.3,2.2z"
	/>
<path class="st0" d="M46.3,2.2l113.1,113.1l0,0c6.7-29.3-2.2-62.5-26.4-86.7S75.6-4.5,46.3,2.2L46.3,2.2z"/>
<path class="st0" d="M324.5,72.8c6.7,29.3-2.2,62.5-26.4,86.7c-24.2,24.2-57.4,33.1-86.7,26.4c-6.7-29.3,2.2-62.5,26.4-86.7
	S295.1,66.1,324.5,72.8z"/>
<path class="st0" d="M324.5,72.8L211.3,185.9l0,0c-6.7-29.3,2.2-62.5,26.4-86.7S295.1,66.1,324.5,72.8L324.5,72.8z"/>
<path class="st0" d="M376.9,196.9c8.3,36.4-2.7,77.6-32.7,107.7c-30,30-71.3,41.1-107.7,32.7c-8.3-36.4,2.7-77.6,32.8-107.7
	S340.5,188.6,376.9,196.9z"/>
<path class="st0" d="M376.9,196.9L236.5,337.3l0,0c-8.3-36.4,2.7-77.6,32.8-107.7C299.3,199.6,340.5,188.6,376.9,196.9L376.9,196.9z
	"/>
<path class="st0" d="M315.2,258.6c-3.4-3.4-9-3.4-12.5,0L194.2,367.1V215.5l72.4-72.4c3.4-3.4,3.4-9,0-12.5c-3.4-3.4-9-3.4-12.5,0
	l-60,60v-12.7c0-25.9-10.1-50.3-28.4-68.7L116.6,60c-3.4-3.4-9-3.4-12.5,0s-3.4,9,0,12.5l49.2,49.2c15,15,23.3,35,23.3,56.2v118.9
	L67.9,188.1c-3.4-3.4-9-3.4-12.5,0s-3.4,9,0,12.5l121.1,121.1V459c0,4.9,4,8.8,8.8,8.8s8.8-4,8.8-8.8v-67l121-121
	C318.7,267.6,318.7,262,315.2,258.6z"/>
<path class="st0" d="M317.8,503.2c-30.2-26.8-78.3-44.1-132.4-44.1S83.2,476.4,53,503.2H317.8z"/>
<path class="st0" d="M317.8,512H53c-4.9,0-8.8-4-8.8-8.8l0,0c0-4.9,4-8.8,8.8-8.8h264.8c4.9,0,8.8,4,8.8,8.8l0,0
	C326.6,508,322.7,512,317.8,512z"/>
</svg>
