<?xml version="1.0" encoding="utf-8"?>
<svg version="1.1" id="Layer_1" xmlns="http://www.w3.org/2000/svg" xmlns:xlink="http://www.w3.org/1999/xlink" x="0px" y="0px"
	 viewBox="0 0 82.6 82.6" style="enable-background:new 0 0 82.6 82.6;" xml:space="preserve">
<style type="text/css">
	.st0{fill:#FFFFFF;}
</style>
<path class="st0" d="M41.3,0C18.5,0,0,18.5,0,41.3s18.5,41.3,41.3,41.3s41.3-18.5,41.3-41.3S64.1,0,41.3,0z M41.3,77.4
	c-19.9,0-36-16.1-36-36s16.1-36,36-36s36,16.1,36,36C77.3,61.2,61.1,77.4,41.3,77.4z"/>
<path class="st0" d="M22.8,56.2c3.7,2.4,8.1,3.8,12.8,3.8c15.5,0,24.3-13.1,23.7-24.8c1.6-1.2,3-2.6,4.2-4.3
	c-1.5,0.7-3.1,1.1-4.8,1.3c1.7-1,3-2.7,3.7-4.6c-1.6,1-3.4,1.7-5.3,2C55.6,28,53.4,27,51,27c-5.4,0-9.3,5-8.1,10.3
	C36,37,29.8,33.6,25.7,28.6c-2.2,3.8-1.1,8.7,2.6,11.1c-1.4,0-2.7-0.4-3.8-1c-0.1,3.9,2.7,7.5,6.7,8.3c-1.2,0.3-2.5,0.4-3.8,0.1
	c1.1,3.3,4.1,5.7,7.8,5.8C31.7,55.5,27.2,56.8,22.8,56.2z"/>
</svg>
