<?xml version="1.0" encoding="utf-8"?>
<!-- Generator: Adobe Illustrator 22.0.1, SVG Export Plug-In . SVG Version: 6.00 Build 0)  -->
<svg version="1.1" id="Слой_1" xmlns="http://www.w3.org/2000/svg" xmlns:xlink="http://www.w3.org/1999/xlink" x="0px" y="0px"
	 viewBox="0 0 376 426.9" style="enable-background:new 0 0 376 426.9;" xml:space="preserve">
<style type="text/css">
	.st0{fill:#FFFFFF;}
</style>
<g>
	<path class="st0" d="M58,65.7l13.9-0.5l11.5,303l-13.9,0.5L58,65.7z"/>
	<path class="st0" d="M136.1,227.6c-40.7,9.5-65.9,50.2-56.4,90.8C120.4,308.9,145.6,268.2,136.1,227.6L136.1,227.6z"/>
	<path class="st0" d="M6.5,232.5c41.3,6.4,69.5,45,63.2,86.3C28.4,312.4,0.1,273.8,6.5,232.5L6.5,232.5z"/>
	<path class="st0" d="M133.3,154.6c-40.7,9.5-65.9,50.2-56.4,90.8C117.6,236,142.9,195.3,133.3,154.6L133.3,154.6z"/>
	<path class="st0" d="M3.7,159.6c41.3,6.4,69.5,45,63.2,86.3C25.6,239.5-2.7,200.8,3.7,159.6L3.7,159.6z"/>
	<path class="st0" d="M130.6,81.7c-40.7,9.5-65.9,50.2-56.4,90.8C114.8,163,140.1,122.4,130.6,81.7L130.6,81.7z"/>
	<path class="st0" d="M61.7,0L61.7,0c-36.7,33.7-34.1,85.4,6,115.4C104.5,81.7,101.8,30,61.7,0z"/>
	<path class="st0" d="M0.9,86.7c41.3,6.4,69.5,45,63.2,86.3C22.8,166.6-5.5,127.9,0.9,86.7L0.9,86.7z"/>
	<path class="st0" d="M318.4,245.2l7.8,11.6L75.1,426.9l-7.8-11.6L318.4,245.2z"/>
</g>
<g>
	<path class="st0" d="M222.1,397c-29.6-29.5-77.4-29.4-106.9,0.2C144.8,426.7,192.7,426.6,222.1,397L222.1,397z"/>
	<path class="st0" d="M149.4,289.6c16.4,38.4-1.4,82.8-39.9,99.2C93.1,350.4,111,306,149.4,289.6L149.4,289.6z"/>
	<path class="st0" d="M282.6,356.1c-29.6-29.5-77.4-29.4-106.9,0.2C205.2,385.8,253.1,385.7,282.6,356.1L282.6,356.1z"/>
	<path class="st0" d="M209.8,248.7c16.4,38.4-1.4,82.8-39.9,99.2C153.6,309.5,171.4,265.1,209.8,248.7L209.8,248.7z"/>
	<path class="st0" d="M343,315.2c-29.6-29.5-77.4-29.4-106.9,0.2C265.6,344.8,313.5,344.8,343,315.2L343,315.2z"/>
	<path class="st0" d="M376,213.6L376,213.6c-48-13.4-90.5,16.2-94.8,66.1C329.2,293.1,371.6,263.5,376,213.6z"/>
	<path class="st0" d="M270.2,207.8c16.4,38.4-1.4,82.8-39.9,99.2C214,268.6,231.8,224.2,270.2,207.8L270.2,207.8z"/>
</g>
</svg>
