<?xml version="1.0" encoding="UTF-8" ?>
<!DOCTYPE svg PUBLIC "-//W3C//DTD SVG 1.1//EN" "http://www.w3.org/Graphics/SVG/1.1/DTD/svg11.dtd">
<svg width="74pt" height="82pt" viewBox="0 0 74 82" version="1.1" xmlns="http://www.w3.org/2000/svg">
<g id="#a4a4a4ff">
<path fill="#a4a4a4" opacity="1.00" d=" M 11.18 0.00 L 11.82 0.00 C 12.07 0.23 12.57 0.70 12.82 0.94 C 12.95 1.12 13.21 1.48 13.34 1.66 C 16.64 5.48 18.53 11.17 15.90 15.87 C 14.39 18.32 13.41 21.02 13.47 23.93 C 15.08 20.63 17.08 17.29 20.55 15.67 C 21.57 15.24 22.60 14.82 23.64 14.41 C 23.70 15.06 23.82 16.36 23.88 17.01 C 24.30 23.21 19.85 28.62 14.14 30.54 C 14.15 32.73 14.15 34.93 14.08 37.12 C 15.47 32.28 19.28 27.83 24.58 27.40 C 24.43 29.23 24.35 31.07 24.17 32.90 C 23.10 37.87 19.24 41.51 14.61 43.27 C 14.62 45.25 14.62 47.22 14.58 49.20 C 16.24 44.61 19.91 41.14 24.56 39.69 C 24.67 40.41 24.89 41.83 25.00 42.55 C 24.92 43.12 24.78 44.27 24.70 44.85 C 24.09 50.17 19.90 54.16 15.05 55.93 C 15.12 58.75 15.18 61.58 15.36 64.40 C 14.75 64.43 13.53 64.49 12.92 64.52 C 12.76 61.70 12.58 58.87 12.40 56.05 C 5.39 54.55 0.94 47.55 1.71 40.55 C 6.85 41.55 11.16 45.08 12.70 50.15 C 12.34 47.90 12.09 45.64 11.86 43.37 C 4.96 41.77 0.40 34.87 1.28 27.90 C 6.04 28.91 10.00 32.09 12.05 36.51 C 11.81 34.59 11.62 32.67 11.42 30.75 C 4.57 29.09 0.28 22.43 0.49 15.54 C 3.25 16.02 6.01 17.00 8.17 18.83 C 9.64 20.53 10.44 22.71 11.64 24.60 C 12.90 19.28 7.11 16.21 7.09 11.15 C 6.49 6.93 9.01 3.33 11.18 0.00 Z" />
<path fill="#a4a4a4" opacity="1.00" d=" M 40.39 53.41 C 38.18 46.70 41.52 39.04 48.02 36.25 C 49.35 40.90 49.13 45.94 46.48 50.14 C 50.55 47.37 50.79 41.65 55.06 39.14 C 58.29 36.77 62.53 36.59 66.31 37.48 C 66.17 38.18 65.89 39.58 65.76 40.29 C 64.45 44.74 60.79 48.88 55.94 49.24 C 52.94 49.44 49.99 50.00 47.32 51.43 C 51.57 51.24 56.41 51.30 59.58 54.58 L 60.62 55.45 C 57.75 57.39 54.56 59.32 50.94 59.08 C 47.61 59.23 44.75 57.36 42.00 55.74 C 40.35 56.75 38.69 57.75 37.00 58.71 C 41.79 57.90 46.72 59.12 50.29 62.47 C 49.87 62.72 49.02 63.23 48.60 63.49 C 43.60 67.49 36.32 66.77 31.55 62.78 C 29.95 63.78 28.35 64.78 26.72 65.74 C 31.36 65.14 36.04 66.25 39.69 69.23 C 35.60 73.42 29.05 74.51 23.84 71.81 C 22.88 71.18 21.94 70.53 21.00 69.87 C 18.61 71.46 16.24 73.06 13.87 74.67 C 13.51 74.17 12.79 73.15 12.43 72.65 C 13.60 71.84 14.77 71.03 15.95 70.24 C 17.14 69.43 18.34 68.63 19.54 67.84 C 18.94 64.28 18.34 60.41 20.10 57.07 C 21.41 54.05 24.19 52.12 26.91 50.46 L 27.64 52.48 C 28.14 56.48 27.84 60.64 25.40 64.04 C 26.84 62.90 28.30 61.78 29.76 60.67 C 29.27 57.23 28.86 53.55 30.44 50.31 C 31.71 47.12 34.59 45.08 37.37 43.29 C 38.87 47.76 38.83 52.73 36.09 56.74 C 37.51 55.61 38.94 54.51 40.39 53.41 Z" />
</g>
<g id="#002c0045">
<path fill="#bae6ba" opacity="0.27" d=" M 12.82 0.94 C 19.24 2.63 20.52 10.00 20.55 15.67 C 17.08 17.29 15.08 20.63 13.47 23.93 C 13.41 21.02 14.39 18.32 15.90 15.87 C 18.53 11.17 16.64 5.48 13.34 1.66 C 13.21 1.48 12.95 1.12 12.82 0.94 Z" />
<path fill="#bae6ba" opacity="0.27" d=" M 23.88 17.01 C 25.06 16.80 26.23 16.59 27.41 16.39 C 27.64 20.21 27.88 24.73 24.58 27.40 C 19.28 27.83 15.47 32.28 14.08 37.12 C 14.15 34.93 14.15 32.73 14.14 30.54 C 19.85 28.62 24.30 23.21 23.88 17.01 Z" />
<path fill="#bae6ba" opacity="0.27" d=" M 24.17 32.90 C 24.86 31.22 26.43 30.32 28.01 29.62 C 28.63 34.21 27.49 38.69 25.00 42.55 C 24.89 41.83 24.67 40.41 24.56 39.69 C 19.91 41.14 16.24 44.61 14.58 49.20 C 14.62 47.22 14.62 45.25 14.61 43.27 C 19.24 41.51 23.10 37.87 24.17 32.90 Z" />
<path fill="#bae6ba" opacity="0.27" d=" M 55.94 49.24 C 60.79 48.88 64.45 44.74 65.76 40.29 C 68.32 40.46 70.88 40.64 73.45 40.85 C 72.72 43.98 72.01 47.33 69.69 49.71 C 67.20 52.76 63.19 53.62 59.58 54.58 C 56.41 51.30 51.57 51.24 47.32 51.43 C 49.99 50.00 52.94 49.44 55.94 49.24 Z" />
<path fill="#bae6ba" opacity="0.27" d=" M 24.70 44.85 C 25.99 44.46 27.28 44.08 28.57 43.70 C 28.67 46.66 28.27 49.60 27.64 52.48 L 26.91 50.46 C 24.19 52.12 21.41 54.05 20.10 57.07 C 18.34 60.41 18.94 64.28 19.54 67.84 C 18.34 68.63 17.14 69.43 15.95 70.24 C 15.74 68.29 15.51 66.35 15.36 64.40 C 15.18 61.58 15.12 58.75 15.05 55.93 C 19.90 54.16 24.09 50.17 24.70 44.85 Z" />
<path fill="#bae6ba" opacity="0.27" d=" M 60.62 55.45 C 62.84 57.12 65.16 58.67 67.29 60.47 C 62.46 64.09 55.76 65.78 50.29 62.47 C 46.72 59.12 41.79 57.90 37.00 58.71 C 38.69 57.75 40.35 56.75 42.00 55.74 C 44.75 57.36 47.61 59.23 50.94 59.08 C 54.56 59.32 57.75 57.39 60.62 55.45 Z" />
<path fill="#bae6ba" opacity="0.27" d=" M 26.72 65.74 C 28.35 64.78 29.95 63.78 31.55 62.78 C 36.32 66.77 43.60 67.49 48.60 63.49 C 51.24 64.64 53.76 66.09 56.06 67.84 C 53.36 69.70 50.48 71.77 47.07 71.85 C 44.43 71.85 41.83 71.31 39.20 71.33 C 40.59 73.11 42.67 74.08 44.54 75.27 C 42.17 77.50 39.30 79.32 35.96 79.52 C 31.73 80.21 27.85 78.05 24.28 76.09 C 21.62 77.93 18.90 79.69 16.03 81.19 C 16.00 80.61 15.94 79.45 15.91 78.87 C 18.49 76.45 21.81 74.83 23.84 71.81 C 29.05 74.51 35.60 73.42 39.69 69.23 C 36.04 66.25 31.36 65.14 26.72 65.74 Z" />
</g>
</svg>
