<?xml version="1.0" encoding="utf-8"?>
<!-- Generator: Adobe Illustrator 22.0.1, SVG Export Plug-In . SVG Version: 6.00 Build 0)  -->
<svg version="1.1" id="Слой_1" xmlns="http://www.w3.org/2000/svg" xmlns:xlink="http://www.w3.org/1999/xlink" x="0px" y="0px"
	 viewBox="0 0 416.1 563.1" style="enable-background:new 0 0 416.1 563.1;" xml:space="preserve">
<style type="text/css">
	.st0{fill:#FFFDFA;stroke:#C4C4C4;stroke-miterlimit:10;}
	.st1{fill:#E8E8E8;}
	.st2{fill:none;stroke:#FFD7D7;stroke-miterlimit:10;}
	.st3{fill:none;stroke:#FFD7D7;stroke-width:7;stroke-miterlimit:10;}
	.st4{fill:#FFD7D7;}
	.st5{fill:none;stroke:#CCCACA;stroke-width:0.5;stroke-miterlimit:10;}
	.st6{fill:#222222;}
	.st7{font-family:'IBMPlexSans-Bold';}
	.st8{font-size:24px;}
</style>
<rect x="0.5" y="0.5" class="st0" width="415.1" height="562.1"/>
<rect x="108.6" y="134.6" class="st1" width="259.8" height="11"/>
<rect x="39.4" y="157.6" class="st1" width="329" height="11"/>
<rect x="39.4" y="180.6" class="st1" width="329" height="11"/>
<rect x="39.4" y="203.6" class="st1" width="329" height="11"/>
<rect x="39.4" y="226.6" class="st1" width="329" height="11"/>
<rect x="39.4" y="249.6" class="st1" width="329" height="11"/>
<rect x="39.4" y="272.6" class="st1" width="329" height="11"/>
<rect x="39.4" y="333.6" class="st1" width="329" height="11"/>
<rect x="39.4" y="356.6" class="st1" width="329" height="11"/>
<rect x="39.4" y="379.6" class="st1" width="329" height="11"/>
<rect x="39.4" y="295.6" class="st1" width="239.3" height="11"/>
<rect x="39.4" y="402.6" class="st1" width="239.3" height="11"/>
<rect x="256.4" y="493.1" class="st1" width="119.7" height="4.4"/>
<circle class="st2" cx="74.8" cy="481.7" r="35.5"/>
<circle class="st3" cx="74.8" cy="481.7" r="29.2"/>
<rect x="57.8" y="477.6" class="st4" width="34.2" height="8.3"/>
<path class="st5" d="M263.9,511.1c-0.5-24.8,13.4-43.1,27-44.5c19.8-2,38.6,31.9,35,36c-2.5,2.8-19.4-4.3-20-12.5
	c-0.6-7.9,13.9-17.8,26.5-17c13.7,0.8,26.5,14.4,30.5,34"/>
<text transform="matrix(1 0 0 1 107.4594 69.2356)"><tspan x="0" y="0" class="st6 st7 st8">Phytosanitary</tspan><tspan x="22.7" y="26" class="st6 st7 st8">certificate</tspan></text>
</svg>
