<?xml version="1.0" encoding="utf-8"?>
<!-- Generator: Adobe Illustrator 22.0.1, SVG Export Plug-In . SVG Version: 6.00 Build 0)  -->
<svg version="1.1" id="Layer_1" xmlns="http://www.w3.org/2000/svg" xmlns:xlink="http://www.w3.org/1999/xlink" x="0px" y="0px"
	 viewBox="0 0 512 512" style="enable-background:new 0 0 512 512;" xml:space="preserve">
<style type="text/css">
	.st0{fill:#A4A4A4;}
	.st1{fill:#FFFFFF;}
	.st2{fill:none;}
</style>
<g>
	<path class="st0" d="M501.5,86.2c0,0-129.5,7-211,187.1c-67.2,148.7-168.2,214-168.2,214s156.6,84.2,261.8-158
		C445.2,188.6,473,120.6,501.5,86.2z"/>
	<path class="st0" d="M475,91.4L475,91.4c0,0-118.3-45.2-247,122.9c-106.3,138.9-217.1,181-217.1,181s92.2,104.7,233.6-38.4
		L475,91.4z"/>
</g>
<path class="st0" d="M155.2,48.2c-0.7-5.7-6-9.8-11.7-9c-0.4,0.1-0.8,0.1-1.2,0.2c-1-2.6-2.2-5.2-3.7-7.5c0.3-0.3,0.7-0.5,1-0.8
	c4.1-4.1,4-10.7,0-14.8l-0.1-0.1c-4.1-4.1-10.7-4-14.8,0c-0.3,0.3-0.5,0.6-0.8,0.9c-2.2-1.3-4.4-2.5-6.8-3.4
	c0.1-0.4,0.2-0.8,0.3-1.2c0.9-5.7-3.1-11-8.8-11.9C91.3-2,73.5,3.8,61.2,16.2C50.7,26.7,45,40.6,45,55.4s5.8,28.7,16.2,39.2
	c10.5,10.5,24.4,16.2,39.2,16.2s28.7-5.8,39.2-16.2C151.7,82.3,157.5,65.4,155.2,48.2z"/>
<path class="st0" d="M94.6,203.7c-10.5-10.5-24.4-16.2-39.2-16.2s-28.7,5.8-39.2,16.2C5.8,214.1,0,228,0,242.8s5.8,28.7,16.2,39.2
	c10.5,10.5,24.4,16.2,39,16.2c2.4,0,4.9-0.2,7.3-0.5c5.7-0.7,9.8-6,9-11.7c-0.1-0.4-0.1-0.8-0.2-1.2c2.6-1,5.1-2.2,7.5-3.7
	c0.2,0.3,0.5,0.6,0.8,0.9c2,2.1,4.7,3.1,7.4,3.1c2.7,0,5.3-1,7.4-3l0.1-0.1c4.1-4.1,4.1-10.7,0-14.8c-0.3-0.3-0.6-0.6-0.9-0.8
	c1.3-2.2,2.5-4.4,3.4-6.8c0.4,0.1,0.8,0.2,1.2,0.3c5.7,0.9,11-3.1,11.9-8.8C112.8,233.7,106.9,216,94.6,203.7z"/>
<path class="st0" d="M217.3,114.4c-12.2-12.2-29.1-18-46.3-15.8c-5.7,0.7-9.8,6-9,11.7c0.1,0.4,0.1,0.8,0.2,1.2
	c-2.6,1-5.1,2.2-7.5,3.7c-0.2-0.3-0.5-0.6-0.8-0.9c-4.1-4.1-10.7-4.1-14.8,0l-0.1,0.1c-4.1,4.1-4.1,10.7,0,14.8
	c0.3,0.3,0.6,0.6,0.9,0.8c-1.3,2.2-2.5,4.4-3.4,6.8c-0.4-0.1-0.8-0.2-1.2-0.3c-5.7-0.9-11,3.1-11.9,8.8c-2.6,17.3,3.2,35,15.6,47.4
	c10.5,10.5,24.4,16.2,39.2,16.2s28.7-5.8,39.2-16.2c10.5-10.5,16.2-24.4,16.2-39.2C233.5,138.7,227.8,124.8,217.3,114.4z"/>
<circle class="st1" cx="180.9" cy="347.1" r="25.1"/>
<ellipse transform="matrix(0.1602 -0.9871 0.9871 0.1602 -92.2249 478.0027)" class="st1" cx="234.8" cy="293.2" rx="25.1" ry="25.1"/>
<circle class="st1" cx="276.3" cy="234" r="25.1"/>
<g>
	<path class="st2" d="M281,269c11.4-25.1,24.2-48.2,38.5-69c-0.2,0-0.5,0-0.7,0c-13.9,0-25.1-11.3-25.1-25.1s11.3-25.1,25.1-25.1
		c11.8,0,21.8,8.2,24.4,19.2c2.3-2.7,4.6-5.3,6.9-7.9c21.6-23.8,45.6-43.3,71.3-57.9c4.3-2.4,8.5-4.7,12.5-6.7
		c-9.7,0.1-20.9,1.2-33.4,4c-39.6,8.8-100.2,36.8-164.2,120.3c-55.8,72.8-112.8,118.9-150.8,144.8c-23.7,16.1-43.1,26.6-55.5,32.7
		c12.7,9.6,35.7,22.8,66.6,23.6c44.5,1.1,91.5-22.9,139.6-71.3C251.6,327,267.1,299.9,281,269z"/>
	<path class="st2" d="M300.1,277.6c-14.4,31.9-30.4,60-46.4,84.3c-0.3,0.6-0.7,1.1-1.1,1.7c-22.8,34.3-45.6,60.9-63.8,79.8
		c-18.3,18.9-34.1,32.5-45,41.2c19.1,5.8,52.9,11.7,90.9-1.6c55.8-19.5,102.9-72.6,139.8-157.8c6.5-14.9,12.6-29,18.4-42.4
		c39.7-91.6,63.5-146.6,85-181.3c-12.5,3.6-28.9,9.8-47.3,20.4C393.5,143.3,340.7,187.7,300.1,277.6z"/>
	<path class="st0" d="M510.8,81.5c-1.9-3.7-5.7-6-9.9-5.7c-0.7,0-10.4,0.6-25.7,4.8c-3.5-1-9.6-2.6-17.8-3.7
		c-0.4-0.2-0.8-0.4-1.2-0.6c-5.4-2.2-10-5.5-13.7-9.7c-10.5-11.8-9.5-29.9,2.3-40.4c8.6-7.6,21.7-6.9,29.4,1.7
		c2.6,2.9,3.9,6.6,3.7,10.5c-0.2,3.9-1.9,7.4-4.8,10c-4.3,3.8-4.7,10.4-0.8,14.8c3.8,4.3,10.4,4.7,14.8,0.8
		c7.1-6.3,11.3-15,11.8-24.4c0.5-9.5-2.6-18.6-8.9-25.6c-15.3-17.2-41.7-18.7-58.9-3.4c-19.1,16.9-22,45.1-7.8,65.4
		c-7.9,0.6-16.5,1.7-25.7,3.7c-27.8,5.9-55.6,18-82.5,35.9c-33.2,22.1-65.3,53.2-95.4,92.5C165.9,278.3,111,322.8,74.4,347.7
		c-39.7,27.1-67,37.7-67.2,37.8c-3.2,1.2-5.6,3.9-6.4,7.3c-0.8,3.3,0,6.8,2.3,9.4c1.4,1.6,34.8,38.8,92.5,40.5c1.3,0,2.7,0.1,4,0.1
		c27.6,0,55.6-8.1,83.9-24.3c-3.2,3.5-6.3,6.8-9.2,9.9c-32.5,33.9-57.4,50.1-57.6,50.3c-3.1,2-4.9,5.5-4.8,9.2s2.2,7,5.5,8.8
		c1.6,0.9,29.4,15.4,69.5,15.4c16.4,0,34.8-2.4,54.3-9.2c61.7-21.4,113-78.4,152.5-169.3c6.5-14.9,12.6-29,18.4-42.4
		c48.6-112.2,73-168.6,97.5-198.3C512.2,89.6,512.7,85.2,510.8,81.5z M96.5,421.7c-31-0.8-54-14-66.6-23.6
		c12.5-6.1,31.8-16.5,55.5-32.7c38-25.9,95.1-72,150.8-144.8c64-83.5,124.6-111.5,164.2-120.3c12.5-2.8,23.8-3.8,33.4-4
		c-4.1,2-8.2,4.2-12.5,6.7c-25.7,14.6-49.6,34.1-71.3,57.9c-2.3,2.6-4.6,5.2-6.9,7.9c0.5,1.9,0.7,3.9,0.7,5.9
		c0,13.6-10.9,24.7-24.4,25.1c-14.2,20.8-27.1,43.9-38.5,69c-14,30.9-29.4,58-44.9,81.5C188,398.9,141,422.9,96.5,421.7z
		 M392.9,282.8c-5.8,13.3-11.9,27.4-18.4,42.4c-37,85.1-84,138.2-139.8,157.8c-38.1,13.3-71.8,7.4-90.9,1.6
		c10.9-8.6,26.7-22.2,45-41.2c18.2-18.9,41-45.5,63.8-79.8c0.4-0.5,0.8-1.1,1.1-1.7c16-24.3,32-52.3,46.4-84.3
		c40.6-89.8,93.4-134.2,130.5-155.7c18.3-10.6,34.8-16.8,47.3-20.4C456.3,136.2,432.5,191.1,392.9,282.8z"/>
	<path class="st1" d="M318.8,149.7c-13.9,0-25.1,11.3-25.1,25.1s11.3,25.1,25.1,25.1c0.2,0,0.5,0,0.7,0c7.5-11,15.4-21.4,23.7-31
		C340.5,157.9,330.6,149.7,318.8,149.7z"/>
</g>
</svg>
