<?xml version="1.0" encoding="utf-8"?>
<!-- Generator: Adobe Illustrator 22.0.1, SVG Export Plug-In . SVG Version: 6.00 Build 0)  -->
<svg version="1.1" id="Capa_1" xmlns="http://www.w3.org/2000/svg" xmlns:xlink="http://www.w3.org/1999/xlink" x="0px" y="0px"
	 viewBox="0 0 398.6 512.1" style="enable-background:new 0 0 398.6 512.1;" xml:space="preserve">
<style type="text/css">
	.st0{fill:#A4A4A4;}
	.st1{fill:#FFFFFF;}
</style>
<g>
	<path class="st0" d="M126.1,17.2c-2.5,16-6.8,59.8,16.1,85.4l39.1-16.3c-1.9-34.2-35.9-62.2-49-71.7
		C129.8,12.8,126.6,14.1,126.1,17.2z"/>
	<path class="st0" d="M272.5,352.9c2.5-16,6.8-59.8-16.1-85.4l-39.1,16.3c1.9,34.2,35.9,62.2,49,71.7
		C268.8,357.3,272,356,272.5,352.9z"/>
	<path class="st0" d="M367.2,111.9c-16-2.5-59.8-6.8-85.4,16.1l16.2,39.1c34.2-1.9,62.2-35.9,71.7-49
		C371.6,115.6,370.2,112.4,367.2,111.9z"/>
	<path class="st0" d="M31.4,258.2c16,2.5,59.8,6.8,85.4-16.1L100.6,203c-34.2,1.9-62.2,35.9-71.7,49C27,254.5,28.4,257.8,31.4,258.2
		z"/>
	<path class="st0" d="M266.3,14.6c-13.1,9.5-47.1,37.5-49,71.7l39.1,16.2C279.3,77,275,33.2,272.5,17.1
		C272,14.1,268.8,12.8,266.3,14.6z"/>
	<path class="st0" d="M132.3,355.5c13.1-9.5,47.1-37.5,49-71.7l-39.1-16.2c-22.9,25.5-18.6,69.3-16.1,85.4
		C126.6,356,129.8,357.3,132.3,355.5z"/>
	<path class="st0" d="M369.7,252c-9.5-13.1-37.5-47.2-71.7-49l-16.2,39.1c25.5,22.9,69.3,18.6,85.4,16.1
		C370.2,257.8,371.6,254.5,369.7,252z"/>
	<path class="st0" d="M28.9,118.1c9.5,13.1,37.5,47.2,71.7,49l16.2-39.1c-25.5-22.9-69.3-18.6-85.4-16.1
		C28.4,112.4,27,115.6,28.9,118.1z"/>
</g>
<path class="st0" d="M243.4,431.9c-1,0.8-19.6,14.8-36,32.9V275h-16.3v189.8c-16.4-18.1-34.9-32.1-36-32.9l-9.8,13.1
	c0.3,0.2,26.5,20,42.7,41.8c2,2.7,3,6.1,3,9.5v7.6c0,4.5,3.7,8.2,8.2,8.2s8.2-3.7,8.2-8.2v-7.6c0-3.4,1-6.8,3-9.5
	c16.2-21.7,42.4-41.5,42.7-41.8L243.4,431.9z"/>
<path class="st0" d="M0.5,341.9c11.1,23.9,50.7,88.8,159.4,108.2c4.1,0.7,7.2-3.7,5.1-7.4c-13.4-22.8-57.3-83-158.9-107.7
	C2.1,334.1-1.3,338.2,0.5,341.9z"/>
<path class="st0" d="M398.1,341.9c-11.1,23.9-50.7,88.8-159.4,108.2c-4.1,0.7-7.2-3.7-5.1-7.4c13.4-22.8,57.3-83,158.9-107.7
	C396.5,334.1,399.9,338.2,398.1,341.9z"/>
<g>
	<path class="st0" d="M195.9,2c-8.5,13.8-29.2,52.7-17.8,85h42.4c11.4-32.3-9.4-71.2-17.8-85C201-0.7,197.6-0.7,195.9,2z"/>
	<path class="st0" d="M202.7,368.2c8.5-13.8,29.2-52.7,17.8-85h-42.4c-11.4,32.3,9.4,71.2,17.8,85
		C197.6,370.8,201,370.8,202.7,368.2z"/>
	<path class="st0" d="M382.4,181.7c-13.8-8.5-52.7-29.2-85-17.8v42.4c32.3,11.4,71.2-9.4,85-17.8C385,186.8,385,183.3,382.4,181.7z"
		/>
	<path class="st0" d="M16.2,188.4c13.8,8.5,52.7,29.2,85,17.8v-42.4c-32.3-11.4-71.2,9.4-85,17.8C13.6,183.3,13.6,186.8,16.2,188.4z
		"/>
	<path class="st0" d="M326.4,53.2c-15.8,3.8-57.9,16.6-72.7,47.5l30,30c30.9-14.8,43.7-56.9,47.5-72.7
		C331.9,55,329.4,52.5,326.4,53.2z"/>
	<path class="st0" d="M72.2,316.9c15.8-3.8,57.9-16.6,72.7-47.5l-30-30c-30.9,14.8-43.7,56.9-47.5,72.7
		C66.7,315.2,69.2,317.6,72.2,316.9z"/>
	<path class="st0" d="M331.1,312.2c-3.8-15.8-16.6-57.9-47.5-72.7l-30,30c14.8,30.9,56.9,43.7,72.7,47.5
		C329.4,317.6,331.9,315.2,331.1,312.2z"/>
	<path class="st0" d="M67.5,58c3.8,15.8,16.6,57.9,47.5,72.7l30-30C130.2,69.8,88.1,57,72.3,53.2C69.2,52.5,66.7,55,67.5,58z"/>
</g>
<g>
	<circle class="st0" cx="199.3" cy="185.1" r="106.2"/>
	<path class="st1" d="M199.3,292.8c-59.4,0-107.8-48.3-107.8-107.8S139.9,77.3,199.3,77.3s107.8,48.3,107.8,107.8
		S258.7,292.8,199.3,292.8z M199.3,80.3c-57.8,0-104.8,47-104.8,104.8s47,104.8,104.8,104.8s104.8-47,104.8-104.8
		C304,127.3,257.1,80.3,199.3,80.3z"/>
</g>
<circle class="st1" cx="199.3" cy="185.1" r="81.7"/>
</svg>
