<?xml version="1.0" encoding="UTF-8" ?>
<!DOCTYPE svg PUBLIC "-//W3C//DTD SVG 1.1//EN" "http://www.w3.org/Graphics/SVG/1.1/DTD/svg11.dtd">
<svg width="24pt" height="24pt" viewBox="0 0 24 24" version="1.1" xmlns="http://www.w3.org/2000/svg">
<g id="#fdfdfdfd">
<path fill="#fdfdfd" opacity="1.00" d=" M 10.11 0.00 L 13.92 0.00 C 18.81 1.20 22.81 5.18 24.00 10.06 L 24.00 13.67 L 23.96 13.59 C 22.94 19.24 18.00 24.00 12.08 23.99 L 14.59 24.00 L 12.24 24.00 C 6.18 24.33 1.04 18.98 0.00 13.80 L 0.00 10.15 C 0.11 10.13 0.33 10.09 0.44 10.07 C 0.60 4.86 5.83 1.05 10.11 0.00 M 8.32 2.42 C 3.79 4.08 0.87 9.21 1.90 13.95 C 2.78 19.38 8.59 23.36 13.97 22.12 C 19.39 21.20 23.33 15.39 22.08 10.02 C 21.08 3.97 13.99 0.01 8.32 2.42 Z" />
<path fill="#fdfdfd" opacity="1.00" d=" M 10.42 9.44 C 9.15 6.27 12.44 4.71 15.06 5.38 C 15.06 6.00 15.05 7.24 15.05 7.87 C 13.44 7.43 12.75 8.04 12.99 9.67 C 13.50 9.70 14.54 9.76 15.06 9.78 C 15.04 10.32 15.00 11.39 14.98 11.93 C 14.49 11.96 13.52 12.04 13.03 12.07 C 13.05 14.30 13.13 16.53 13.02 18.75 C 12.34 18.75 10.99 18.75 10.32 18.75 C 10.29 16.59 10.28 14.43 10.35 12.27 C 8.04 12.79 8.48 9.09 10.42 9.44 Z" />
</g>
</svg>
